<?xml version="1.0" encoding="UTF-8"?>
<svg xmlns="http://www.w3.org/2000/svg" width="135.532" height="36.427" viewBox="0 0 135.532 36.427">
  <g id="Layer_1" data-name="Layer 1" transform="translate(-0.001 -0.009)">
    <g id="Group_223" data-name="Group 223" transform="translate(0.001 0.009)">
      <g id="Group_221" data-name="Group 221" transform="translate(0 0)">
        <path id="Path_330" data-name="Path 330" d="M3.177,3.271h31.68a1.135,1.135,0,0,1,.527.128l6.4,3.325a1.142,1.142,0,0,0,1.3-.17l3.529-3.231a1.14,1.14,0,0,1,.77-.3h.213a1.139,1.139,0,0,0,.893-.429L50.2.439A1.142,1.142,0,0,1,51.565.112l.527.242a1.14,1.14,0,0,1,.57,1.5l-1.327,2.98A1.132,1.132,0,0,0,51.412,5.9h0a1.136,1.136,0,0,1,.1,1.012L49.1,13.19a1.156,1.156,0,0,0-.043.689l.965,3.822a1.12,1.12,0,0,1-.111.833l-3.112,5.6a1.146,1.146,0,0,0-.085.914l2.423,7.27a1.137,1.137,0,0,1-.476,1.327l-.327.2a1.14,1.14,0,0,1-1.531-.3l-3.146-4.358a1.145,1.145,0,0,0-1.139-.455l-9.06,1.739a1.142,1.142,0,0,0-.663.4l-4.247,5.149a1.144,1.144,0,0,1-1.424.276l-10.055-5.48a1.187,1.187,0,0,0-.357-.123L7.739,29.185a1.155,1.155,0,0,1-.748-.472L.2,18.993a1.138,1.138,0,0,1-.191-.816L2.05,4.244a1.141,1.141,0,0,1,1.131-.978Z" transform="translate(-0.001 -0.009)" fill="#0081c3"></path>
        <path id="Path_331" data-name="Path 331" d="M54.441,21.823h-4.69a1.072,1.072,0,0,1-1.071-1.071v-4.69a1.072,1.072,0,0,0-1.071-1.071H40.674A1.072,1.072,0,0,0,39.6,16.061v4.69a1.072,1.072,0,0,1-1.071,1.071h-4.69a1.072,1.072,0,0,0-1.071,1.071v6.935A1.072,1.072,0,0,0,33.841,30.9h4.69A1.072,1.072,0,0,1,39.6,31.971v4.69a1.072,1.072,0,0,0,1.071,1.071h6.935a1.072,1.072,0,0,0,1.071-1.071v-4.69A1.072,1.072,0,0,1,49.751,30.9h4.69a1.072,1.072,0,0,0,1.071-1.071V22.894A1.072,1.072,0,0,0,54.441,21.823Z" transform="translate(-18.838 -8.621)" fill="#fff"></path>
        <path id="Path_332" data-name="Path 332" d="M57.046,38.549a12.185,12.185,0,0,1-4.4,3.8,12.109,12.109,0,0,1-4.4-3.8,4,4,0,0,1-.685-2.419,2.689,2.689,0,0,1,5.094-1.054,2.688,2.688,0,0,1,5.089,1.054,4.03,4.03,0,0,1-.685,2.419Z" transform="translate(-27.331 -19.309)" fill="#d51f26"></path>
      </g>
      <g id="Group_222" data-name="Group 222" transform="translate(55.969 7.403)">
        <path id="Path_333" data-name="Path 333" d="M134.52,17.79h2.16v9.328h-2.16Z" transform="translate(-133.296 -17.633)" fill="#0081c3"></path>
        <path id="Path_334" data-name="Path 334" d="M153.354,17.79v9.328h-1.773l-4.651-5.663v5.663H144.8V17.79h1.786l4.639,5.663V17.79Z" transform="translate(-139.205 -17.633)" fill="#0081c3"></path>
        <path id="Path_335" data-name="Path 335" d="M172.27,19.515v2.466h4.316v1.73H172.27v3.4h-2.16V17.78h7.049v1.73H172.27Z" transform="translate(-153.754 -17.627)" fill="#0081c3"></path>
        <path id="Path_336" data-name="Path 336" d="M189.944,23.005V17.78h2.16v5.145c0,1.773.774,2.5,2.079,2.5s2.079-.731,2.079-2.5V17.78h2.13v5.225c0,2.747-1.573,4.264-4.226,4.264s-4.226-1.518-4.226-4.264Z" transform="translate(-165.152 -17.627)" fill="#0081c3"></path>
        <path id="Path_337" data-name="Path 337" d="M213.11,25.983l.731-1.624a5.484,5.484,0,0,0,3.078.974c1.28,0,1.8-.425,1.8-1,0-1.747-5.425-.548-5.425-4.009,0-1.586,1.28-2.9,3.933-2.9a6.284,6.284,0,0,1,3.24.825l-.668,1.637a5.271,5.271,0,0,0-2.585-.731c-1.28,0-1.773.48-1.773,1.067,0,1.718,5.425.531,5.425,3.958,0,1.56-1.293,2.891-3.958,2.891a6.623,6.623,0,0,1-3.8-1.08Z" transform="translate(-178.471 -17.42)" fill="#0081c3"></path>
        <path id="Path_338" data-name="Path 338" d="M242.044,25.378v1.73H234.82V17.78h7.049v1.73h-4.9v2.024H241.3v1.679h-4.333v2.16h5.077Z" transform="translate(-190.951 -17.627)" fill="#0081c3"></path>
        <path id="Path_339" data-name="Path 339" d="M261.784,27.108l-1.8-2.6H258v2.6h-2.16V17.78h4.039c2.491,0,4.052,1.293,4.052,3.384a3.038,3.038,0,0,1-1.918,2.946l2.092,3h-2.317ZM259.76,19.54H258v3.253h1.76c1.318,0,1.986-.612,1.986-1.624s-.668-1.624-1.986-1.624Z" transform="translate(-203.034 -17.627)" fill="#0081c3"></path>
        <path id="Path_340" data-name="Path 340" d="M286.191,17.79l-4.039,9.328h-2.13L276,17.79h2.334l2.84,6.662,2.878-6.662H286.2Z" transform="translate(-214.622 -17.633)" fill="#0081c3"></path>
        <path id="Path_341" data-name="Path 341" d="M309,25.378v1.73H301.78V17.78h7.049v1.73h-4.9v2.024h4.333v1.679h-4.333v2.16H309Z" transform="translate(-229.441 -17.627)" fill="#0081c3"></path>
        <path id="Path_342" data-name="Path 342" d="M139.008,56.45h-4.333l-.825,2H131.64L135.8,49.12h2.13l4.171,9.328h-2.266Zm-.68-1.641-1.48-3.571-1.48,3.571h2.959Z" transform="translate(-131.64 -35.642)" fill="#0081c3"></path>
        <path id="Path_343" data-name="Path 343" d="M167.011,58.448l-.013-5.6-2.747,4.609h-.974l-2.734-4.49v5.476H158.52V49.12h1.786l3.491,5.8,3.44-5.8h1.773l.026,9.328Z" transform="translate(-147.091 -35.642)" fill="#0081c3"></path>
        <path id="Path_344" data-name="Path 344" d="M195.664,56.718v1.73H188.44V49.12h7.049v1.73h-4.9v2.024h4.333v1.679h-4.333v2.16h5.077Z" transform="translate(-164.29 -35.642)" fill="#0081c3"></path>
        <path id="Path_345" data-name="Path 345" d="M215.414,58.448l-1.8-2.6H211.63v2.6h-2.16V49.12h4.039c2.492,0,4.052,1.293,4.052,3.384a3.038,3.038,0,0,1-1.918,2.946l2.092,3h-2.317ZM213.39,50.88h-1.76v3.253h1.76c1.318,0,1.986-.612,1.986-1.624s-.668-1.624-1.986-1.624Z" transform="translate(-176.379 -35.642)" fill="#0081c3"></path>
        <path id="Path_346" data-name="Path 346" d="M232.5,49.12h2.16v9.328H232.5Z" transform="translate(-189.617 -35.642)" fill="#0081c3"></path>
        <path id="Path_347" data-name="Path 347" d="M241.4,53.566a5.137,5.137,0,0,1,8.9-3.172l-1.386,1.28a3,3,0,0,0-2.347-1.093,2.985,2.985,0,0,0,0,5.969,2.987,2.987,0,0,0,2.347-1.105l1.386,1.28a5.128,5.128,0,0,1-8.9-3.159Z" transform="translate(-194.733 -35.424)" fill="#0081c3"></path>
        <path id="Path_348" data-name="Path 348" d="M269.8,56.45h-4.332l-.825,2H262.43l4.158-9.328h2.13l4.171,9.328h-2.266Zm-.68-1.641-1.48-3.571-1.48,3.571Z" transform="translate(-206.822 -35.642)" fill="#0081c3"></path>
      </g>
    </g>
  </g>
</svg>
